<svg width="40" height="40" viewBox="0 0 40 40" fill="none" xmlns="http://www.w3.org/2000/svg">
<path fill-rule="evenodd" clip-rule="evenodd" d="M36.5392 17.6113C36.3018 19.2559 35.7392 20.8189 34.9055 22.2563C34.968 22.6121 35 22.9719 35 23.3331C35 24.5878 34.6365 25.7886 33.9631 26.8796C33.6269 27.4242 33.5404 28.0623 33.5072 28.4839C33.469 28.9671 33.4819 29.4958 33.5163 30.0037C33.555 30.5735 33.6251 31.1717 33.7053 31.736C33.0548 31.5463 32.3497 31.3558 31.6768 31.204C31.1171 31.0777 30.5444 30.9701 30.0257 30.9165C29.5732 30.8698 28.9193 30.8336 28.3346 31.0226C27.0561 31.4359 25.6493 31.6665 24.1667 31.6665C22.4035 31.6665 20.7842 31.3535 19.3648 30.8098C19.0234 30.8253 18.6795 30.8331 18.3333 30.8331C16.3256 30.8331 14.3933 30.5691 12.5854 30.0811C15.2137 33.1209 19.5465 34.9998 24.1667 34.9998C25.9716 34.9998 27.7039 34.7227 29.3004 34.2135C29.3031 34.2136 29.3082 34.2135 29.3158 34.2133C29.3568 34.2125 29.4706 34.2103 29.6832 34.2322C30.0175 34.2667 30.4474 34.3437 30.9433 34.4556C31.9306 34.6783 33.04 35.007 33.9046 35.2814C35.7382 35.8635 37.5148 34.2634 37.1871 32.4027C37.0461 31.6019 36.8995 30.6245 36.842 29.7778C36.8131 29.3521 36.8099 29.0026 36.8302 28.7462C36.8385 28.6399 36.8493 28.5733 36.8561 28.5379C37.7938 26.9846 38.3334 25.216 38.3334 23.3331C38.3334 21.2105 37.6741 19.2723 36.5392 17.6113Z" fill="#309CFF"/>
<path fill-rule="evenodd" clip-rule="evenodd" d="M9.3284 9.4971C7.0818 11.2151 5.83333 13.4703 5.83333 15.8335C5.83333 17.0119 6.1401 18.1468 6.71564 19.2022C6.93485 19.6042 6.99703 20.0188 7.01927 20.2995C7.04352 20.6056 7.03143 20.9202 7.00481 21.2144C6.95152 21.8033 6.82439 22.4706 6.67191 23.1279C6.49354 23.8967 6.26498 24.7166 6.03306 25.4865C6.91348 25.1665 7.87575 24.8386 8.78801 24.5724C9.52529 24.3573 10.2698 24.1707 10.9325 24.0659C11.5034 23.9756 12.3317 23.8869 13.0449 24.1337C14.6455 24.6874 16.436 25.0002 18.3333 25.0002C21.9119 25.0002 25.0901 23.8891 27.3383 22.1699C29.5849 20.4519 30.8333 18.1967 30.8333 15.8335C30.8333 13.4703 29.5849 11.2151 27.3383 9.4971C25.0901 7.77794 21.9119 6.66683 18.3333 6.66683C14.7547 6.66683 11.5765 7.77794 9.3284 9.4971ZM7.30357 6.84924C10.1828 4.64751 14.0879 3.3335 18.3333 3.3335C22.5787 3.3335 26.4839 4.64751 29.3631 6.84924C32.2438 9.05215 34.1667 12.2136 34.1667 15.8335C34.1667 19.4534 32.2438 22.6148 29.3631 24.8177C26.4839 27.0195 22.5787 28.3335 18.3333 28.3335C16.0949 28.3335 13.9568 27.9686 12.0154 27.3046C12.0135 27.31 11.856 27.2946 11.4531 27.3583C10.9887 27.4318 10.3959 27.5756 9.72156 27.7724C8.37912 28.164 6.87154 28.7181 5.72322 29.165C3.73384 29.9392 1.70725 28.0286 2.37752 25.9934C2.73277 24.9147 3.15175 23.5516 3.42481 22.3746C3.56237 21.7816 3.65164 21.2831 3.68504 20.914C3.69664 20.7858 3.69963 20.6924 3.69896 20.6293C2.93182 19.1633 2.5 17.5422 2.5 15.8335C2.5 12.2136 4.42284 9.05215 7.30357 6.84924ZM3.69347 20.5384C3.69363 20.5382 3.69444 20.5426 3.69542 20.5523C3.6938 20.5434 3.69331 20.5386 3.69347 20.5384Z" fill="#309CFF"/>
</svg>
