<svg width="40" height="40" viewBox="0 0 40 40" fill="none" xmlns="http://www.w3.org/2000/svg">
<path fill-rule="evenodd" clip-rule="evenodd" d="M14.1667 4.86995C12.7859 4.86995 11.6667 5.98924 11.6667 7.36995V32.6304C11.6667 34.0111 12.7859 35.1304 14.1667 35.1304H25.8333C27.214 35.1304 28.3333 34.0111 28.3333 32.6304V7.36995C28.3333 5.98924 27.214 4.86995 25.8333 4.86995H25.6944L25.2884 5.84404C25.0296 6.46507 24.4228 6.86958 23.75 6.86958H16.25C15.5772 6.86958 14.9704 6.46507 14.7116 5.84404L14.3056 4.86995H14.1667ZM8.33333 7.36995C8.33333 4.14829 10.945 1.53662 14.1667 1.53662H25.8333C29.055 1.53662 31.6667 4.14829 31.6667 7.36995V32.6304C31.6667 35.852 29.055 38.4637 25.8333 38.4637H14.1667C10.945 38.4637 8.33333 35.852 8.33333 32.6304V7.36995Z" fill="#309CFF"/>
</svg>
